<svg xmlns="http://www.w3.org/2000/svg" xmlns:xlink="http://www.w3.org/1999/xlink" version="1.1" width="1000" height="1000" viewBox="0 0 1000 1000" xml:space="preserve">
<desc>Created with Fabric.js 3.5.0</desc>
<defs>
</defs>
<rect x="0" y="0" width="100%" height="100%" fill="#ffffff"/>
<g transform="matrix(15.1515 0 0 15.1515 575.7575 499.9998)" id="201048">
<filter id="SVGID_268" y="-131.11%" height="362.22%" x="-220%" width="540%">
	<feGaussianBlur in="SourceAlpha" stdDeviation="5"/>
	<feOffset dx="10" dy="10" result="oBlur"/>
	<feFlood flood-color="rgb(0,0,0)" flood-opacity="1"/>
	<feComposite in2="oBlur" operator="in"/>
	<feMerge>
		<feMergeNode/>
		<feMergeNode in="SourceGraphic"/>
	</feMerge>
</filter>
<path style="stroke: rgb(171,179,196); stroke-width: 2; stroke-dasharray: none; stroke-linecap: round; stroke-dashoffset: 0; stroke-linejoin: round; stroke-miterlimit: 4; is-custom-font: none; font-file-url: none; fill: none; fill-rule: nonzero; opacity: 1;filter: url(#SVGID_268);" transform=" translate(-35, -30)" d="M 40 21 H 34 C 32.9391 21 31.9217 21.4214 31.1716 22.1716 C 30.4214 22.9217 30 23.9391 30 25 V 39 C 30 38.2044 30.3161 37.4413 30.8787 36.8787 C 31.4413 36.3161 32.2044 36 33 36 H 40 V 21 Z" stroke-linecap="round"/>
</g>
<g transform="matrix(15.1515 0 0 15.1515 424.2423 499.9998)" id="275533">
<filter id="SVGID_269" y="-131.11%" height="362.22%" x="-220%" width="540%">
	<feGaussianBlur in="SourceAlpha" stdDeviation="5"/>
	<feOffset dx="10" dy="10" result="oBlur"/>
	<feFlood flood-color="rgb(0,0,0)" flood-opacity="1"/>
	<feComposite in2="oBlur" operator="in"/>
	<feMerge>
		<feMergeNode/>
		<feMergeNode in="SourceGraphic"/>
	</feMerge>
</filter>
<path style="stroke: rgb(171,179,196); stroke-width: 2; stroke-dasharray: none; stroke-linecap: round; stroke-dashoffset: 0; stroke-linejoin: round; stroke-miterlimit: 4; is-custom-font: none; font-file-url: none; fill: none; fill-rule: nonzero; opacity: 1;filter: url(#SVGID_269);" transform=" translate(-25, -30)" d="M 20 21 H 26 C 27.0609 21 28.0783 21.4214 28.8284 22.1716 C 29.5786 22.9217 30 23.9391 30 25 V 39 C 30 38.2044 29.6839 37.4413 29.1213 36.8787 C 28.5587 36.3161 27.7956 36 27 36 H 20 V 21 Z" stroke-linecap="round"/>
</g>
</svg>